<?xml version="1.0" standalone="no"?>
<!DOCTYPE svg PUBLIC "-//W3C//DTD SVG 20010904//EN"
 "http://www.w3.org/TR/2001/REC-SVG-20010904/DTD/svg10.dtd">
<svg version="1.0" xmlns="http://www.w3.org/2000/svg"
 width="4710.000000pt" height="4710.000000pt" viewBox="0 0 4710.000000 4710.000000"
 preserveAspectRatio="xMidYMid meet">
<metadata>
Created by potrace 1.14, written by Peter Selinger 2001-2017
</metadata>
<g transform="translate(0.000000,4710.000000) scale(0.100000,-0.100000)"
fill="#000000" stroke="none">
<path d="M22435 46319 c-2808 -82 -5579 -692 -8145 -1792 -770 -330 -1596
-742 -2320 -1157 -2527 -1449 -4771 -3398 -6567 -5706 -2685 -3448 -4296
-7596 -4643 -11949 -55 -694 -75 -1293 -67 -2045 6 -570 12 -746 42 -1220 124
-1946 504 -3876 1129 -5725 1741 -5157 5334 -9531 10071 -12260 549 -317 1327
-718 1860 -959 2722 -1234 5502 -1891 8495 -2006 329 -13 1311 -13 1640 0
2644 102 5135 630 7550 1600 936 376 1921 856 2807 1366 2626 1513 4938 3559
6755 5979 846 1128 1526 2229 2153 3490 649 1306 1133 2566 1524 3970 445
1595 700 3204 791 4990 18 340 24 1317 11 1700 -84 2504 -531 4801 -1385 7116
-1240 3364 -3343 6451 -6050 8883 -1956 1758 -4211 3161 -6646 4136 -2845
1140 -5906 1680 -9005 1589z m2580 -14219 c1687 -62 3024 -426 4065 -1107 313
-205 576 -419 835 -678 588 -587 1011 -1285 1295 -2135 215 -640 329 -1255
381 -2045 16 -239 16 -969 1 -1220 -93 -1484 -433 -2675 -1050 -3680 -704
-1147 -1642 -1898 -2978 -2384 -1091 -396 -2304 -568 -3864 -546 -982 13
-1564 41 -2170 101 -140 14 -281 28 -313 31 l-57 6 2 6691 3 6691 213 32
c1297 194 2598 281 3637 243z m-7825 -1953 c568 -135 989 -558 1122 -1126 25
-110 36 -402 19 -523 -58 -404 -276 -761 -609 -1001 -376 -270 -877 -344
-1327 -196 -437 145 -791 500 -933 939 -57 173 -67 245 -67 465 0 173 3 214
23 304 59 260 172 487 337 669 257 286 541 436 940 496 17 2 111 3 210 1 149
-3 198 -8 285 -28z m5 -5532 c703 -109 1301 -536 1633 -1165 107 -203 190
-462 228 -710 21 -140 24 -450 5 -590 -120 -894 -750 -1620 -1610 -1856 -264
-72 -601 -95 -881 -58 -892 116 -1637 783 -1851 1658 -45 186 -62 329 -62 531
1 267 29 452 108 690 108 331 274 604 515 852 374 383 836 605 1375 663 112
12 421 3 540 -15z m5938 -7991 c213 -47 359 -181 410 -375 l14 -56 -186 -19
c-102 -10 -195 -19 -205 -19 -14 0 -23 12 -34 43 -30 90 -124 139 -248 129
-113 -9 -189 -70 -189 -152 0 -92 59 -130 275 -175 218 -46 258 -58 346 -100
179 -86 264 -223 264 -425 0 -159 -43 -266 -141 -361 -116 -110 -273 -159
-509 -158 -257 2 -424 57 -537 178 -67 71 -105 142 -128 238 -26 112 -41 102
168 121 100 10 189 17 199 17 11 0 18 -12 23 -39 11 -68 56 -125 122 -157 52
-26 68 -29 158 -29 88 0 105 3 144 25 67 38 86 70 86 145 0 114 -34 138 -283
197 -250 59 -322 83 -391 129 -148 99 -221 272 -192 452 36 223 210 369 486
406 91 13 256 5 348 -15z m-1598 -14 c170 -43 313 -139 410 -275 143 -200 190
-513 120 -803 -9 -37 -39 -114 -67 -171 -44 -91 -62 -116 -137 -192 -73 -73
-102 -94 -181 -132 -140 -67 -208 -81 -375 -80 -108 0 -158 5 -218 22 -200 53
-372 192 -460 371 -77 158 -92 232 -91 450 0 157 4 197 22 265 35 130 103 255
184 341 128 135 259 198 473 228 64 9 243 -4 320 -24z m-1905 -4 c199 -3 278
-7 317 -19 136 -39 215 -102 270 -215 l38 -76 0 -135 c-1 -116 -4 -144 -23
-191 -38 -96 -111 -166 -216 -205 l-48 -19 44 -22 c89 -45 120 -99 272 -463
42 -101 88 -205 102 -232 l24 -49 -230 0 c-212 0 -230 1 -230 18 0 27 -108
339 -146 422 -39 85 -71 122 -129 153 -34 18 -61 22 -173 25 l-134 4 4 -311 3
-311 -200 0 -200 0 0 818 0 817 195 -2 c107 -2 314 -5 460 -7z m-2647 -73 c-4
-43 -8 -181 -8 -308 l0 -230 333 -3 332 -2 -1 242 c0 134 -3 273 -8 311 l-7
67 208 0 208 0 -8 -62 c-9 -82 -9 -1424 0 -1505 l8 -63 -208 0 -208 0 7 68 c5
37 8 187 8 335 l1 267 -337 0 -336 0 6 -307 c4 -170 10 -320 13 -335 l6 -28
-209 0 -209 0 7 68 c5 37 8 373 8 747 0 374 -3 710 -8 748 l-7 67 208 0 208 0
-7 -77z m1719 15 c-4 -35 -7 -373 -7 -753 0 -379 3 -718 7 -752 l8 -63 -213 0
-213 0 7 68 c5 37 8 373 8 747 0 374 -3 710 -8 748 l-7 67 213 0 213 0 -8 -62z
m5501 5 c-3 -32 -7 -170 -7 -308 l-1 -250 333 -3 332 -2 -1 242 c0 134 -3 273
-8 311 l-7 67 208 0 208 0 -8 -62 c-9 -82 -9 -1424 0 -1505 l8 -63 -208 0
-208 0 7 68 c5 37 8 187 8 335 l1 267 -337 0 -336 0 6 -307 c4 -170 10 -320
13 -335 l6 -28 -209 0 -209 0 7 68 c5 37 8 373 8 747 0 374 -3 710 -8 748 l-7
67 208 0 208 0 -7 -57z m1729 -5 c-4 -35 -7 -373 -7 -753 0 -379 3 -718 7
-752 l8 -63 -213 0 -213 0 7 68 c5 37 8 373 8 747 0 374 -3 710 -8 748 l-7 67
213 0 213 0 -8 -62z m768 39 c0 -12 9 -54 20 -94 22 -78 325 -957 340 -982 11
-20 -11 -76 185 489 86 250 164 490 173 533 l17 77 257 0 258 0 -8 -47 c-9
-62 -9 -1508 0 -1550 l8 -33 -189 0 -189 0 4 138 c2 75 6 301 9 502 3 201 8
388 11 415 4 28 4 47 0 44 -3 -3 -23 -64 -45 -135 -21 -71 -91 -276 -154 -455
-97 -272 -131 -375 -163 -496 -3 -10 -45 -13 -172 -13 l-168 0 -12 59 c-7 33
-70 227 -141 433 -71 205 -146 426 -166 491 -21 65 -39 117 -41 115 -2 -2 1
-83 6 -179 5 -95 11 -342 12 -547 l3 -372 -187 0 -188 0 8 48 c4 26 7 371 7
767 0 396 -3 741 -7 768 l-8 47 260 0 260 0 0 -23z m2509 -97 c51 -153 485
-1356 521 -1442 l28 -68 -227 0 -228 0 -12 68 c-6 37 -29 122 -49 189 l-37
123 -282 0 -281 0 -37 -117 c-20 -64 -44 -150 -53 -190 l-16 -73 -223 0 c-123
0 -223 1 -223 3 0 2 11 30 24 63 57 139 537 1489 542 1525 l7 39 254 -2 254
-3 38 -115z"/>
<path d="M24205 30910 c-350 -14 -734 -46 -1035 -85 -172 -23 -491 -76 -517
-86 l-23 -9 0 -5569 c0 -3063 4 -5572 8 -5575 31 -19 488 -60 852 -77 334 -15
1203 -15 1415 0 1604 112 2783 592 3656 1489 843 865 1328 2063 1463 3612 50
561 46 1242 -10 1770 -198 1891 -1027 3221 -2453 3935 -664 332 -1433 522
-2361 585 -215 14 -755 20 -995 10z m2732 -4537 c-3 -3260 1 -3038 -62 -3411
-141 -831 -518 -1384 -1133 -1661 -418 -187 -1021 -248 -1597 -161 -201 31
-484 105 -500 130 -4 7 112 703 119 717 1 1 52 -14 115 -33 393 -119 880 -134
1241 -38 111 29 277 106 364 168 79 57 199 183 257 271 158 239 244 530 301
1020 8 73 12 885 15 3033 l4 2932 439 0 440 0 -3 -2967z"/>
<path d="M21247 16300 c-197 -34 -317 -222 -317 -497 0 -191 50 -334 147 -423
76 -70 144 -93 253 -88 140 7 229 64 293 186 50 95 68 182 68 321 0 232 -71
389 -208 464 -39 21 -159 51 -183 46 -3 -1 -26 -5 -53 -9z"/>
<path d="M19370 16105 l0 -175 178 0 c164 0 181 2 222 23 114 57 123 244 15
304 -37 21 -52 23 -227 23 l-188 0 0 -175z"/>
<path d="M28827 15984 c-48 -158 -86 -288 -84 -290 2 -3 85 -3 183 -2 l180 3
-91 287 c-49 158 -92 288 -95 288 -3 0 -45 -129 -93 -286z"/>
</g>
</svg>
